<?xml version="1.0" encoding="UTF-8"?>
<svg xmlns="http://www.w3.org/2000/svg" version="1.1" viewBox="0 0 64 64">
  <defs>
    <style>
      .cls-1 {
        fill: #31323a;
      }

      .cls-2 {
        fill: #c9e6f0;
      }

      .cls-3 {
        fill: #ffa658;
      }

      .cls-4 {
        fill: #ff7079;
      }

      .cls-5 {
        fill: #fcd67b;
      }

      .cls-6 {
        fill: #f7deda;
      }

      .cls-7 {
        fill: #78b3ce;
      }

      .cls-8 {
        fill: #a0e9ff;
      }
    </style>
  </defs>
  <!-- Generator: Adobe Illustrator 28.7.6, SVG Export Plug-In . SVG Version: 1.2.0 Build 188)  -->
  <g>
    <g id="Layer_1">
      <g>
        <path class="cls-1" d="M27.58,15.7c-.67-.67-1.51-1.05-2.38-1.18-.21-.03-.42-.05-.63-.05-1.08,0-2.16.41-2.98,1.22-1.65,1.66-1.65,4.35,0,6,.83.82,1.92,1.24,3,1.24s2.17-.42,3-1.24c1.66-1.65,1.66-4.34,0-6ZM26.3,20.42c-.95.94-2.49.94-3.43,0-.95-.95-.95-2.49,0-3.43.47-.48,1.1-.72,1.71-.72s1.25.24,1.72.72c.94.94.94,2.48,0,3.43Z"/>
        <path class="cls-1" d="M56.56,39.43c.4-1.66.61-3.37.61-5.11,0-12.09-9.71-21.94-21.75-22.17.04-.25.09-.5.13-.75l.24-1.87c.07-.56-.12-1.11-.52-1.5s-.94-.59-1.5-.52l-1.88.24c-5.62.72-10.92,3.32-14.95,7.35l-1.32,1.43c-2.39-.23-4.77.24-6.9,1.39l-4.16,2.22c-.25.14-.43.38-.46.66-.05.29.05.57.25.78l1.88,1.88c.75.75,1.74,1.17,2.8,1.17h.74c-.05,1.17.28,2.33,1.02,3.3-.63.29-1.22.71-1.78,1.26-1.98,1.99-1.69,5.93-1.64,6.38.04.43.38.78.82.82.12,0,.48.04,1,.04.95,0,2.4-.11,3.7-.63.14,2.35.64,4.63,1.52,6.8,3.4,8.45,11.48,13.92,20.59,13.92.14,0,.29,0,.37,0,3.13-.05,6.12-.74,8.91-2.04,1.65,1.28,3.71,2.05,5.95,2.05,5.36,0,9.72-4.36,9.72-9.72,0-2.94-1.31-5.57-3.37-7.36ZM55.35,34.32c0,1.35-.14,2.69-.4,3.99-1.4-.79-3.03-1.25-4.75-1.25-1.58,0-3.06.39-4.38,1.06.1-1.25.17-2.51.17-3.8,0-1.92-.13-3.81-.36-5.66.4-.04.81-.06,1.2-.11,2.55-.28,5-.66,7.31-1.11.78,2.15,1.21,4.47,1.21,6.89ZM53.44,25.72c-2.16.42-4.44.76-6.8,1.02-.43.05-.84.09-1.26.13-.94-5.43-2.86-9.76-5.3-12.28,5.93,1.53,10.82,5.68,13.36,11.13ZM44.19,34.32c0,1.74-.11,3.45-.31,5.09-.14.12-.28.24-.42.38-5.47-.45-11.64-.44-17.34.03-.24-1.78-.35-3.63-.35-5.5,0-.19,0-.41,0-.62.67-1.54,1.01-3.18,1.02-4.84,2.61.21,5.35.32,8.17.32,3.01,0,5.98-.13,8.86-.36.24,1.78.35,3.63.35,5.5ZM35.06,13.96c3.71.08,7.13,5.38,8.5,13.06-5.32.43-11.03.46-16.17.07l.83-.77c3.39-3.39,5.75-7.71,6.84-12.36ZM18.25,16.34c3.71-3.72,8.64-6.13,13.87-6.8l1.86-.24-.24,1.87c-.66,5.22-3.08,10.15-6.78,13.84l-5.7,5.26-8.26-8.25,5.25-5.68ZM24.97,29.33c-.08,1.51-.48,3.01-1.21,4.38l-1.64,3.08-1.01-1.01c-.41-.41-.63-.95-.64-1.53v-1.13c.49-.22.97-.51,1.4-.9l3.12-2.88ZM10.19,22.81h-1.16c-.58,0-1.12-.24-1.53-.64l-1.01-1.01,3.08-1.65c1.35-.72,2.87-1.13,4.41-1.21l-2.9,3.13c-.39.42-.67.89-.89,1.38ZM13.27,33.45c-.94.94-2.9,1.15-4.14,1.15,0-1.25.21-3.21,1.15-4.14.58-.59,1.22-.96,1.84-1.11l1.35,1.35s.02,0,.02.02l.88.88c-.14.63-.52,1.26-1.1,1.85ZM13.05,27.71s-.02-.02-.03-.03l-.52-.52c-1.01-1.01-1.21-2.49-.62-3.71l7.94,7.94c-1.22.59-2.71.38-3.71-.62l-1.34-1.34s-.02-.02-.03-.03l-1.7-1.7ZM14.62,34.65c.55-.57.96-1.19,1.23-1.82.8.47,1.68.72,2.56.72.07,0,.14-.02.22-.02v.72c.02,1.05.43,2.05,1.18,2.79l1.88,1.88c.17.17.4.26.64.26.05,0,.08,0,.13,0,.29-.05.53-.22.67-.47l.9-1.69c.06,1,.15,1.98.28,2.95-.4.04-.79.07-1.19.12-2.51.27-4.97.64-7.3,1.11-.76-2.1-1.17-4.3-1.21-6.56ZM16.52,42.93c2.19-.43,4.47-.78,6.82-1.02.43-.05.84-.1,1.24-.14.94,5.43,2.85,9.76,5.29,12.28-5.84-1.5-10.75-5.51-13.36-11.12ZM35.24,54.69c-.09,0-.18,0-.27,0-3.74,0-7.19-5.34-8.58-13.07,5.13-.43,10.56-.46,15.66-.12-.99,1.52-1.58,3.33-1.58,5.28,0,1.02.16,2.01.46,2.94-1.62,3.04-3.62,4.81-5.69,4.97ZM40.07,54.04c.63-.64,1.22-1.41,1.78-2.29.28.48.61.93.98,1.36-.9.38-1.82.69-2.76.93ZM50.2,54.7c-4.37,0-7.92-3.55-7.92-7.91s3.55-7.92,7.92-7.92,7.91,3.55,7.91,7.92-3.55,7.91-7.91,7.91Z"/>
        <path class="cls-4" d="M13.98,18.3l-2.9,3.13c-.39.42-.67.89-.89,1.38h-1.16c-.58,0-1.12-.24-1.53-.64l-1.01-1.01,3.08-1.65c1.35-.72,2.87-1.13,4.41-1.21Z"/>
        <path class="cls-3" d="M14.37,31.6c-.14.63-.52,1.26-1.1,1.85-.94.94-2.9,1.15-4.14,1.15,0-1.25.21-3.21,1.15-4.14.58-.59,1.22-.96,1.84-1.11l1.35,1.35s.02,0,.02.02l.88.88Z"/>
        <path class="cls-4" d="M19.82,31.4c-1.22.59-2.71.38-3.71-.62l-1.34-1.34s-.02-.02-.03-.03l-1.7-1.7s-.02-.02-.03-.03l-.52-.52c-1.01-1.01-1.21-2.49-.62-3.71l7.94,7.94Z"/>
        <path class="cls-6" d="M32.12,9.54c-5.23.67-10.16,3.08-13.87,6.8l-5.25,5.68,8.26,8.25,5.7-5.26c3.7-3.7,6.12-8.63,6.78-13.84l.24-1.87-1.86.24ZM27.58,21.7c-.82.82-1.91,1.24-3,1.24s-2.17-.42-3-1.24c-1.65-1.65-1.65-4.34,0-6,.82-.82,1.9-1.22,2.98-1.22.22,0,.43.02.63.05.87.13,1.71.51,2.38,1.18,1.66,1.66,1.66,4.35,0,6Z"/>
        <path class="cls-8" d="M26.3,20.42c-.95.94-2.49.94-3.43,0-.95-.95-.95-2.49,0-3.43.47-.48,1.1-.72,1.71-.72s1.25.24,1.72.72c.94.94.94,2.48,0,3.43Z"/>
        <path class="cls-4" d="M24.97,29.33c-.08,1.51-.48,3.01-1.21,4.38l-1.64,3.08-1.01-1.01c-.41-.41-.63-.95-.64-1.53v-1.13c.49-.22.97-.51,1.4-.9l3.12-2.88Z"/>
        <path class="cls-2" d="M42.84,53.11c-.9.38-1.82.69-2.76.93.63-.64,1.22-1.41,1.78-2.29.28.48.61.93.98,1.36Z"/>
        <path class="cls-5" d="M50.2,38.87c-4.37,0-7.92,3.55-7.92,7.92s3.55,7.91,7.92,7.91,7.91-3.55,7.91-7.91-3.55-7.92-7.91-7.92ZM49.84,45.87h.72c1.56,0,2.83,1.27,2.83,2.83,0,1.38-.99,2.52-2.28,2.77v1.03c0,.5-.41.91-.91.91s-.91-.41-.91-.91v-.97h-1.38c-.51,0-.91-.41-.91-.91s.4-.91.91-.91h2.65c.56,0,1.01-.46,1.01-1.02s-.45-1.01-1.01-1.01h-.72c-1.56,0-2.83-1.27-2.83-2.83,0-1.37.99-2.52,2.28-2.77v-1.02c0-.51.41-.91.91-.91s.91.4.91.91v.97h1.38c.5,0,.91.41.91.91s-.41.91-.91.91h-2.65c-.56,0-1.01.45-1.01,1.01s.45,1.01,1.01,1.01Z"/>
        <path class="cls-7" d="M55.35,34.32c0,1.35-.14,2.69-.4,3.99-1.4-.79-3.03-1.25-4.75-1.25-1.58,0-3.06.39-4.38,1.06.1-1.25.17-2.51.17-3.8,0-1.92-.13-3.81-.36-5.66.4-.04.81-.06,1.2-.11,2.55-.28,5-.66,7.31-1.11.78,2.15,1.21,4.47,1.21,6.89Z"/>
        <path class="cls-2" d="M53.44,25.72c-2.16.42-4.44.76-6.8,1.02-.43.05-.84.09-1.26.13-.94-5.43-2.86-9.76-5.3-12.28,5.93,1.53,10.82,5.68,13.36,11.13Z"/>
        <path class="cls-7" d="M43.56,27.02c-5.32.43-11.03.46-16.17.07l.83-.77c3.39-3.39,5.75-7.71,6.84-12.36,3.71.08,7.13,5.38,8.5,13.06Z"/>
        <path class="cls-2" d="M44.19,34.32c0,1.74-.11,3.45-.31,5.09-.14.12-.28.24-.42.38-5.47-.45-11.64-.44-17.34.03-.24-1.78-.35-3.63-.35-5.5,0-.19,0-.41,0-.62.67-1.54,1.01-3.18,1.02-4.84,2.61.21,5.35.32,8.17.32,3.01,0,5.98-.13,8.86-.36.24,1.78.35,3.63.35,5.5Z"/>
        <path class="cls-7" d="M40.47,46.79c0,1.02.16,2.01.46,2.94-1.62,3.04-3.62,4.81-5.69,4.97-.09,0-.18,0-.27,0-3.74,0-7.19-5.34-8.58-13.07,5.13-.43,10.56-.46,15.66-.12-.99,1.52-1.58,3.33-1.58,5.28Z"/>
        <path class="cls-2" d="M29.87,54.04c-5.84-1.5-10.75-5.51-13.36-11.12,2.19-.43,4.47-.78,6.82-1.02.43-.05.84-.1,1.24-.14.94,5.43,2.85,9.76,5.29,12.28Z"/>
        <path class="cls-7" d="M24.32,39.98c-.4.04-.79.07-1.19.12-2.51.27-4.97.64-7.3,1.11-.76-2.1-1.17-4.3-1.21-6.56.55-.57.96-1.19,1.23-1.82.8.47,1.68.72,2.56.72.07,0,.14-.02.22-.02v.72c.02,1.05.43,2.05,1.18,2.79l1.88,1.88c.17.17.4.26.64.26.05,0,.08,0,.13,0,.29-.05.53-.22.67-.47l.9-1.69c.06,1,.15,1.98.28,2.95Z"/>
        <path class="cls-1" d="M53.39,48.7c0,1.38-.99,2.52-2.28,2.77v1.03c0,.5-.41.91-.91.91s-.91-.41-.91-.91v-.97h-1.38c-.51,0-.91-.41-.91-.91s.4-.91.91-.91h2.65c.56,0,1.01-.46,1.01-1.02s-.45-1.01-1.01-1.01h-.72c-1.56,0-2.83-1.27-2.83-2.83,0-1.37.99-2.52,2.28-2.77v-1.02c0-.51.41-.91.91-.91s.91.4.91.91v.97h1.38c.5,0,.91.41.91.91s-.41.91-.91.91h-2.65c-.56,0-1.01.45-1.01,1.01s.45,1.01,1.01,1.01h.72c1.56,0,2.83,1.27,2.83,2.83Z"/>
      </g>
    </g>
  </g>
</svg>